<svg width="36" height="35" viewBox="0 0 36 35" fill="none" xmlns="http://www.w3.org/2000/svg">
<path d="M20.2692 4.20747L19.6593 4.0034C18.9436 3.76391 18.1692 4.15001 17.9297 4.86577L10.5834 26.8217C10.3439 27.5374 10.73 28.3118 11.4457 28.5513L12.0556 28.7554C12.7714 28.9949 13.5458 28.6088 13.7853 27.893L21.1316 5.93711C21.3711 5.22135 20.985 4.44696 20.2692 4.20747Z" fill="#3FB984" stroke="#C0C0C0" stroke-width="0.16078"/>
<path d="M14.7837 2.84682L7.73324 6.36207C7.05777 6.69884 6.78321 7.51943 7.11999 8.1949L10.6352 15.2454C10.972 15.9209 11.7926 16.1954 12.4681 15.8586L13.0436 15.5717C13.7191 15.2349 13.9936 14.4143 13.6569 13.7389L11.5764 9.56612C11.2793 8.97011 11.5215 8.24607 12.1175 7.94891L16.2903 5.86846C16.9657 5.53168 17.2403 4.7111 16.9035 4.03563L16.6166 3.46008C16.2798 2.78461 15.4592 2.51005 14.7837 2.84682Z" fill="#3FB984" stroke="#C0C0C0" stroke-width="0.16078"/>
<path d="M21.7352 21.1428L18.8293 20.1705C18.1135 19.931 17.3391 20.3171 17.0996 21.0329L16.3599 23.2437C16.1345 23.9174 16.4979 24.6462 17.1715 24.8716L17.5527 24.9992C18.0158 25.1541 18.5169 24.9043 18.6719 24.4412C18.7987 24.0622 19.2086 23.8578 19.5876 23.9846L19.7929 24.0533C20.5837 24.3179 20.664 25.4048 19.9207 25.7827L16.7946 27.3722C16.1256 27.7124 15.8561 28.5285 16.191 29.2002L16.468 29.7558C16.8048 30.4313 17.6254 30.7059 18.3008 30.3691L22.2429 28.4036C25.3836 26.8378 25.0632 22.2564 21.7352 21.1428Z" fill="#3FB984" stroke="#C0C0C0" stroke-width="0.16078"/>
</svg>
